<svg xmlns="http://www.w3.org/2000/svg" viewBox="0 0 1536 425"><defs><linearGradient id="sky" x1="0" y1="0" x2="1" y2="0"><stop stop-color="#f9fcff"/><stop offset=".52" stop-color="#e7f3ff"/><stop offset="1" stop-color="#c8e4f8"/></linearGradient><linearGradient id="road" x1="0" y1="0" x2="0" y2="1"><stop stop-color="#eef7ff"/><stop offset="1" stop-color="#b9d5e9"/></linearGradient><linearGradient id="body" x1="0" y1="0" x2="0" y2="1"><stop stop-color="#fff"/><stop offset=".55" stop-color="#f0f3f5"/><stop offset="1" stop-color="#c6d0d6"/></linearGradient><filter id="blur"><feGaussianBlur stdDeviation="10"/></filter></defs><rect width="1536" height="425" fill="url(#sky)"/><rect y="310" width="1536" height="115" fill="url(#road)"/><g fill="#8eb8d4" opacity=".55"><rect x="1210" y="188" width="38" height="122"/><rect x="1260" y="220" width="48" height="90"/><rect x="1320" y="145" width="44" height="165"/><rect x="1380" y="204" width="38" height="106"/><rect x="1430" y="120" width="52" height="190"/><rect x="1490" y="175" width="46" height="135"/><polygon points="1342,60 1350,145 1334,145"/></g><ellipse cx="1030" cy="373" rx="380" ry="25" fill="#627889" opacity=".25" filter="url(#blur)"/><g transform="translate(620 150) scale(.78)"><path d="M42 218c38-46 96-78 165-94l104-72c34-23 83-35 143-35h145c72 0 128 25 167 77l50 66c18 24 27 43 27 58v25H28c-5-9-3-17 14-25z" fill="url(#body)" stroke="#87949d" stroke-width="4"/><path d="M315 119l104-70c27-18 63-25 112-25h54l22 95z" fill="#263e4e"/><path d="M620 25h145c61 0 108 20 143 61l30 34H628z" fill="#233b4b"/><path d="M606 26l22 94h-42l-54-96z" fill="#dce6eb" opacity=".65"/><path d="M84 184h520l-24 57H96z" fill="#0d1820"/><path d="M705 177l171 7 64 55-45 17H741l-59-39z" fill="#111d25" stroke="#344650" stroke-width="5"/><path d="M720 191l142 7 39 35-33 12H757l-43-28z" fill="#1d2b34"/><path d="M733 200l117 6" stroke="#83939d" stroke-width="3"/><path d="M669 160l79-4-27 27-64 2z" fill="#e8f5fc" stroke="#8c9aa3" stroke-width="3"/><path d="M912 157l53 18 14 18-57-9z" fill="#e8f5fc" stroke="#8c9aa3" stroke-width="3"/><path d="M43 211h88" stroke="#f5a000" stroke-width="7"/><path d="M915 218h75" stroke="#f3f7f9" stroke-width="7"/><g fill="#11191f" stroke="#59666d" stroke-width="7"><circle cx="205" cy="241" r="58"/><circle cx="842" cy="241" r="58"/></g><g fill="#c8d0d5" stroke="#3c474e" stroke-width="5"><circle cx="205" cy="241" r="32"/><circle cx="842" cy="241" r="32"/></g><g fill="#eef2f4"><circle cx="205" cy="241" r="10"/><circle cx="842" cy="241" r="10"/></g></g></svg>